HIERARCHY
ROOT hip
{
  OFFSET 0 0 0
  CHANNELS 6 Xposition Yposition Zposition Zrotation Yrotation Xrotation
  JOINT abdomen
  {
    OFFSET 0 20.6881 -0.73152
    CHANNELS 3 Zrotation Xrotation Yrotation
    JOINT chest
    {
      OFFSET 0 11.7043 -0.48768
      CHANNELS 3 Zrotation Xrotation Yrotation
      JOINT neck
      {
        OFFSET 0 22.1894 -2.19456
        CHANNELS 3 Zrotation Xrotation Yrotation
        JOINT head
        {
          OFFSET -0.24384 7.07133 1.2192
          CHANNELS 3 Zrotation Xrotation Yrotation
          JOINT leftEye
          {
            OFFSET 4.14528 8.04674 8.04672
            CHANNELS 3 Zrotation Xrotation Yrotation
            End Site
            {
              OFFSET 1 0 0
            }
          }
          JOINT rightEye
          {
            OFFSET -3.6576 8.04674 8.04672
            CHANNELS 3 Zrotation Xrotation Yrotation
            End Site
            {
              OFFSET 1 0 0
            }
          }
        }
      }
      JOINT rCollar
      {
        OFFSET -2.68224 19.2634 -4.8768
        CHANNELS 3 Zrotation Xrotation Yrotation
        JOINT rShldr
        {
          OFFSET -8.77824 -1.95073 1.46304
          CHANNELS 3 Zrotation Xrotation Yrotation
          JOINT rForeArm
          {
            OFFSET -28.1742 -1.7115 0.48768
            CHANNELS 3 Zrotation Xrotation Yrotation
            JOINT rHand
            {
              OFFSET -22.5879 0.773209 7.07136
              CHANNELS 3 Zrotation Xrotation Yrotation
              JOINT rThumb1
              {
                OFFSET -1.2192 -0.487915 3.41376
                CHANNELS 3 Zrotation Xrotation Yrotation
                JOINT rThumb2
                {
                  OFFSET -3.37035 -0.52449 3.41376
                  CHANNELS 3 Zrotation Xrotation Yrotation
                  End Site
                  {
                    OFFSET -1.78271 -1.18214 1.43049
                  }
                }
              }
              JOINT rIndex1
              {
                OFFSET -7.75947 0.938293 5.60832
                CHANNELS 3 Zrotation Xrotation Yrotation
                JOINT rIndex2
                {
                  OFFSET -2.54057 -0.884171 1.56538
                  CHANNELS 3 Zrotation Xrotation Yrotation
                  End Site
                  {
                    OFFSET -1.62519 -0.234802 1.16502
                  }
                }
              }
              JOINT rMid1
              {
                OFFSET -8.24714 1.18213 3.41376
                CHANNELS 3 Zrotation Xrotation Yrotation
                JOINT rMid2
                {
                  OFFSET -3.10165 -0.590103 1.0647
                  CHANNELS 3 Zrotation Xrotation Yrotation
                  End Site
                  {
                    OFFSET -2.48547 -0.328903 0.83742
                  }
                }
              }
              JOINT rRing1
              {
                OFFSET -8.82822 0.546677 1.51678
                CHANNELS 3 Zrotation Xrotation Yrotation
                JOINT rRing2
                {
                  OFFSET -2.60934 -0.819778 -0.0198488
                  CHANNELS 3 Zrotation Xrotation Yrotation
                  End Site
                  {
                    OFFSET -2.33842 -0.294052 0.168128
                  }
                }
              }
              JOINT rPinky1
              {
                OFFSET -8.27202 -0.0477905 -0.4584
                CHANNELS 3 Zrotation Xrotation Yrotation
                JOINT rPinky2
                {
                  OFFSET -1.82734 -0.647385 -0.700984
                  CHANNELS 3 Zrotation Xrotation Yrotation
                  End Site
                  {
                    OFFSET -1.69225 -0.51767 -0.607171
                  }
                }
              }
            }
          }
        }
      }
      JOINT lCollar
      {
        OFFSET 2.68224 19.2634 -4.8768
        CHANNELS 3 Zrotation Xrotation Yrotation
        JOINT lShldr
        {
          OFFSET 8.77824 -1.95073 1.46304
          CHANNELS 3 Zrotation Xrotation Yrotation
          JOINT lForeArm
          {
            OFFSET 28.1742 -1.7115 0.48768
            CHANNELS 3 Zrotation Xrotation Yrotation
            JOINT lHand
            {
              OFFSET 22.5879 0.773209 7.07136
              CHANNELS 3 Zrotation Xrotation Yrotation
              JOINT lThumb1
              {
                OFFSET 1.2192 -0.487915 3.41376
                CHANNELS 3 Zrotation Xrotation Yrotation
                JOINT lThumb2
                {
                  OFFSET 3.37035 -0.52449 3.41376
                  CHANNELS 3 Zrotation Xrotation Yrotation
                  End Site
                  {
                    OFFSET 1.78271 -1.18214 1.43049
                  }
                }
              }
              JOINT lIndex1
              {
                OFFSET 7.75947 0.938293 5.60832
                CHANNELS 3 Zrotation Xrotation Yrotation
                JOINT lIndex2
                {
                  OFFSET 2.54057 -0.884171 1.56538
                  CHANNELS 3 Zrotation Xrotation Yrotation
                  End Site
                  {
                    OFFSET 1.62519 -0.234802 1.16502
                  }
                }
              }
              JOINT lMid1
              {
                OFFSET 8.24714 1.18213 3.41376
                CHANNELS 3 Zrotation Xrotation Yrotation
                JOINT lMid2
                {
                  OFFSET 3.10165 -0.590103 1.0647
                  CHANNELS 3 Zrotation Xrotation Yrotation
                  End Site
                  {
                    OFFSET 2.48547 -0.328903 0.83742
                  }
                }
              }
              JOINT lRing1
              {
                OFFSET 8.82822 0.546677 1.51678
                CHANNELS 3 Zrotation Xrotation Yrotation
                JOINT lRing2
                {
                  OFFSET 2.60934 -0.819778 -0.0198488
                  CHANNELS 3 Zrotation Xrotation Yrotation
                  End Site
                  {
                    OFFSET 2.33842 -0.294052 0.168128
                  }
                }
              }
              JOINT lPinky1
              {
                OFFSET 8.27202 -0.0477905 -0.4584
                CHANNELS 3 Zrotation Xrotation Yrotation
                JOINT lPinky2
                {
                  OFFSET 1.82734 -0.647385 -0.700984
                  CHANNELS 3 Zrotation Xrotation Yrotation
                  End Site
                  {
                    OFFSET 1.69225 -0.51767 -0.607171
                  }
                }
              }
            }
          }
        }
      }
    }
  }
  JOINT rButtock
  {
    OFFSET -8.77824 4.35084 1.2192
    CHANNELS 3 Zrotation Xrotation Yrotation
    JOINT rThigh
    {
      OFFSET 0 -1.70687 -2.19456
      CHANNELS 3 Zrotation Xrotation Yrotation
      JOINT rShin
      {
        OFFSET 0 -36.8199 0.73152
        CHANNELS 3 Zrotation Xrotation Yrotation
        JOINT rFoot
        {
          OFFSET 0.73152 -45.1104 -5.12064
          CHANNELS 3 Zrotation Xrotation Yrotation
          End Site
          {
            OFFSET -1.1221 -3.69964 12.103
          }
        }
      }
    }
  }
  JOINT lButtock
  {
    OFFSET 8.77824 4.35084 1.2192
    CHANNELS 3 Zrotation Xrotation Yrotation
    JOINT lThigh
    {
      OFFSET 0 -1.70687 -2.19456
      CHANNELS 3 Zrotation Xrotation Yrotation
      JOINT lShin
      {
        OFFSET 0 -36.8199 0.73152
        CHANNELS 3 Zrotation Xrotation Yrotation
        JOINT lFoot
        {
          OFFSET -0.73152 -45.1104 -5.12064
          CHANNELS 3 Zrotation Xrotation Yrotation
          End Site
          {
            OFFSET 1.1221 -3.69964 12.103
          }
        }
      }
    }
  }
}
MOTION
Frames:	5
Frame Time:	0.03333
0.0 0.0 0.0 0.0 0.0 0.0 0.0 0.0 0.0 0.0 0.0 0.0 0.0 0.0 0.0 0.0 0.0 0.0 0.0 0.0 0.0 0.0 0.0 0.0 0.0 0.0 0.0 0.0 0.0 0.0 0.0 0.0 0.0 0.0 0.0 0.0 0.0 0.0 0.0 0.0 0.0 0.0 0.0 0.0 0.0 0.0 0.0 0.0 0.0 0.0 0.0 0.0 0.0 0.0 0.0 0.0 0.0 0.0 0.0 0.0 0.0 0.0 0.0 0.0 0.0 0.0 0.0 0.0 0.0 0.0 0.0 0.0 0.0 0.0 0.0 0.0 0.0 0.0 0.0 0.0 0.0 0.0 0.0 0.0 0.0 0.0 0.0 0.0 0.0 0.0 0.0 0.0 0.0 0.0 0.0 0.0 0.0 0.0 0.0 0.0 0.0 0.0 0.0 0.0 0.0 0.0 0.0 0.0 0.0 0.0 0.0 0.0 0.0 0.0 0.0 0.0 0.0 0.0 0.0 0.0 0.0 0.0 0.0 0.0 0.0 0.0 0.0 0.0 0.0 0.0 0.0 0.0
0.1411 68.1913 0.0916 -179.63499 20.660583 179.375531 -1.711911 -0.057672 119.105026 8.832626 -6.695264 -114.146611 9.088746 -10.36185 98.607405 -43.419952 20.600212 -100.943701 16.812357 -4.373521 -28.975939 61.709106 -10.101521 -16.83069 -80.234719 -20.101026 162.523649 -131.971875 66.178935 144.47859 -81.53537 -85.909943 80.765089 135.838985 -57.359284 115.52399 -0.287837 -25.003783 -23.627444 -75.793304 -15.737506 -33.059169 -154.427524 7.667499 110.259626 -169.399481 -12.101728 101.043826 -165.185801 39.06652 128.488084 -176.440944 8.555293 128.761657 -129.236348 32.0926 -136.183044 -26.448911 -16.371483 118.598769 114.486605 -55.26871 -38.99849 -60.142172 -47.11306 -37.693696 -46.23577 -88.530113 49.946667 -10.81199 0.320576 -3.630232 1.279402 -3.236803 -165.314238 -159.150926 -37.863623 -135.31445 -67.785998 -71.995226 -29.210814 12.146478 57.06234 172.492283 124.10787 56.713456 -70.20617 -85.235789 10.877983 97.772366 11.663919 -30.877645 15.235288 165.548 -20.634222 -137.763842 -5.199864 -6.980136 178.414786 -1.729899 -5.249395 -84.06276 153.199281 54.110353 15.531093 160.418646 -29.087723 129.391793 -36.444446 43.213548 -127.735098 6.578522 52.713144 171.752414 -4.472377 0.12563 -90.421758 -70.261305 34.928192 87.38974 -48.219883 34.429364 -115.2016 2.21276 57.204116 -0.0 -6.510794 -2.975386 -83.97207 -76.271801 8.047762 88.084365
-0.32980000000000004 64.8279 0.39370000000000005 -6.648242 41.741762 3.53184 -4.230931 3.571758 0.0 2.707327 -2.912325 8.586145 13.444846 3.342507 102.878901 -13.007835 8.205136 -100.52137 1.007117 -0.163305 -18.420396 0.53601 -0.139428 -29.161235 1.30457 -1.148562 -4.71559 -69.273128 66.957824 104.687294 -72.08844 -71.953292 9.802277 -0.818566 -23.898282 -1.528891 -88.679695 42.251533 55.207472 -98.392931 -28.037767 101.624239 -3.941537 -41.261199 -11.825673 17.694123 -0.301806 -38.769383 -16.62612 22.617205 -6.715267 73.420458 -60.863399 28.985936 6.655895 43.057209 -5.253884 19.948497 -42.443543 15.381989 -16.2606 -50.048256 -8.042276 -101.743888 -54.762263 -65.73021 -27.085656 -88.642093 -5.916681 143.547704 -24.944059 174.360899 127.805497 -85.321208 37.61375 7.205825 -1.053962 6.137018 85.016353 37.282247 -48.630214 52.278719 3.991046 -41.86044 -15.102235 -17.923235 1.255589 172.260282 -12.381304 -115.758238 165.45987 23.869081 -154.515385 156.385961 48.907843 -130.602109 129.619047 4.922862 170.628506 60.790862 -65.156746 110.66072 45.113474 -17.235366 29.240627 120.442972 19.293072 154.031295 -156.635511 73.897979 -24.210721 160.611996 36.861683 -116.543271 -54.158869 -16.555036 114.484713 47.797462 -34.582951 -26.619508 -0.963023 -5.552065 -9.856253 34.737704 -31.42262 20.508647 -46.742371 55.930123 -68.417127 84.872427 -35.971158 175.146981
-0.025799999999999997 62.3238 1.2519 -9.711309 39.582493 4.066391 0.571333 11.229311 0.0 -0.243646 -8.416947 6.323624 -2.338838 -9.898987 -9.88986 8.195074 6.606877 8.108592 -5.816011 -0.071598 1.409402 -14.858168 -5.061229 37.447717 -149.331587 41.783053 152.829243 -19.194159 10.735371 25.876932 122.912942 -35.633668 -131.964245 -26.399783 45.868046 8.428225 -81.348627 48.4241 51.117833 -17.806355 -7.919559 38.497225 -152.299043 10.477905 129.456769 18.83357 -43.432349 -22.568732 -161.777961 -4.516912 143.351653 -5.887358 -3.128391 27.444953 -74.902872 -74.174834 -88.816285 22.6844 28.667179 -9.851129 -89.323841 -70.316226 -79.126266 -89.296562 -39.550829 -70.641439 82.057598 67.884288 -82.818939 104.785343 66.237825 -102.416316 85.230271 31.770468 97.914888 -72.706663 -72.226983 -53.531412 -4.877703 -14.395864 -8.48826 143.159377 -30.295722 -138.033306 -37.353258 -57.65281 -8.210187 -5.388967 -1.468564 15.438063 -14.746008 -48.672594 -11.838772 160.262664 -14.151624 -168.342021 47.588767 66.428064 -53.019956 85.593118 73.567802 -87.633604 26.660649 -56.881334 22.613813 97.734344 -69.357933 87.332215 -67.255661 45.703209 -54.639254 110.769572 -7.948943 -126.574387 -78.640013 -63.324176 -138.938468 84.482943 55.296022 178.724293 137.08288 64.169781 31.878837 -139.061364 3.947574 -0.0 -73.040194 78.712487 -28.855357 101.040538 -45.91354 176.534141
1.0322 54.096999999999994 0.2424 -8.802111 34.666512 1.589804 -0.549594 21.711949 -5.789533 0.874979 -16.434857 15.526476 -4.655104 -1.589858 -7.641516 13.948831 -1.318647 -1.287208 -1.073121 0.195724 -20.672319 4.660209 -2.253656 -51.597431 -61.033947 75.174013 60.870956 95.005192 -71.128078 81.72381 -27.190196 16.291744 104.796922 7.635882 -4.222855 -7.328324 -105.853841 51.853618 74.810589 -94.771707 10.952341 48.656153 -166.293151 -21.318583 134.469754 -4.412074 63.32435 -8.255072 -51.622181 46.159626 32.741713 8.670116 -17.069314 15.353248 -144.5945 -73.033671 -145.427089 11.040242 -62.407064 -14.399206 -93.916837 45.630245 117.278289 -83.223003 85.320769 149.648375 82.790799 65.694137 -86.158616 151.247588 58.411635 -150.098987 -94.861063 -26.537441 101.161485 141.68999 61.969498 -110.333628 170.763459 -11.00352 -81.54486 -52.215366 -49.690197 -51.352746 163.708007 -46.771158 -114.816955 167.930295 30.076048 -85.531641 49.592608 48.736336 -29.169695 3.367479 0.779934 -34.086282 -8.048255 -63.141224 -1.007159 80.127186 -68.59628 97.875171 -16.055691 0.312817 -21.427076 27.00103 46.245126 -11.478261 119.929673 56.532435 47.871358 -159.816499 0.762298 -0.0 95.420977 68.466738 -3.289931 -20.198636 5.536095 -101.088009 0.045743 6.385999 -0.411251 66.304603 -51.032756 -180.0 92.54785 -11.58921 -95.019564 -121.882987 -22.574113 -12.090985
